<svg height="2369pt" viewBox="0.00 0.00 516.00 2369.00" width="516pt" xmlns="http://www.w3.org/2000/svg" xmlns:xlink="http://www.w3.org/1999/xlink">
<g class="graph" id="graph0" transform="scale(1 1) rotate(0) translate(4 2365)">
<title>G</title>
<polygon fill="white" points="-4,4 -4,-2365 512,-2365 512,4 -4,4" stroke="none"/>
<!-- 3058235373776 -->
<g class="node" id="node1"><title>3058235373776</title>
<polygon fill="none" points="96.5,-2241.5 96.5,-2287.5 411.5,-2287.5 411.5,-2241.5 96.5,-2241.5" stroke="black"/>
<text font-family="Times New Roman,serif" font-size="14.00" text-anchor="middle" x="163.5" y="-2260.8">conv2d_10: Conv2D</text>
<polyline fill="none" points="230.5,-2241.5 230.5,-2287.5 " stroke="black"/>
<text font-family="Times New Roman,serif" font-size="14.00" text-anchor="middle" x="258.5" y="-2272.3">input:</text>
<polyline fill="none" points="230.5,-2264.5 286.5,-2264.5 " stroke="black"/>
<text font-family="Times New Roman,serif" font-size="14.00" text-anchor="middle" x="258.5" y="-2249.3">output:</text>
<polyline fill="none" points="286.5,-2241.5 286.5,-2287.5 " stroke="black"/>
<text font-family="Times New Roman,serif" font-size="14.00" text-anchor="middle" x="349" y="-2272.3">(None, 64, 300, 1)</text>
<polyline fill="none" points="286.5,-2264.5 411.5,-2264.5 " stroke="black"/>
<text font-family="Times New Roman,serif" font-size="14.00" text-anchor="middle" x="349" y="-2249.3">(None, 62, 298, 32)</text>
</g>
<!-- 3058235591032 -->
<g class="node" id="node2"><title>3058235591032</title>
<polygon fill="none" points="96.5,-2158.5 96.5,-2204.5 411.5,-2204.5 411.5,-2158.5 96.5,-2158.5" stroke="black"/>
<text font-family="Times New Roman,serif" font-size="14.00" text-anchor="middle" x="163.5" y="-2177.8">conv2d_11: Conv2D</text>
<polyline fill="none" points="230.5,-2158.5 230.5,-2204.5 " stroke="black"/>
<text font-family="Times New Roman,serif" font-size="14.00" text-anchor="middle" x="258.5" y="-2189.3">input:</text>
<polyline fill="none" points="230.5,-2181.5 286.5,-2181.5 " stroke="black"/>
<text font-family="Times New Roman,serif" font-size="14.00" text-anchor="middle" x="258.5" y="-2166.3">output:</text>
<polyline fill="none" points="286.5,-2158.5 286.5,-2204.5 " stroke="black"/>
<text font-family="Times New Roman,serif" font-size="14.00" text-anchor="middle" x="349" y="-2189.3">(None, 62, 298, 32)</text>
<polyline fill="none" points="286.5,-2181.5 411.5,-2181.5 " stroke="black"/>
<text font-family="Times New Roman,serif" font-size="14.00" text-anchor="middle" x="349" y="-2166.3">(None, 60, 296, 32)</text>
</g>
<!-- 3058235373776&#45;&gt;3058235591032 -->
<g class="edge" id="edge2"><title>3058235373776-&gt;3058235591032</title>
<path d="M254,-2241.37C254,-2233.15 254,-2223.66 254,-2214.73" fill="none" stroke="black"/>
<polygon fill="black" points="257.5,-2214.61 254,-2204.61 250.5,-2214.61 257.5,-2214.61" stroke="black"/>
</g>
<!-- 3058235662912 -->
<g class="node" id="node3"><title>3058235662912</title>
<polygon fill="none" points="33.5,-2075.5 33.5,-2121.5 474.5,-2121.5 474.5,-2075.5 33.5,-2075.5" stroke="black"/>
<text font-family="Times New Roman,serif" font-size="14.00" text-anchor="middle" x="163.5" y="-2094.8">batch_normalization_4: BatchNormalization</text>
<polyline fill="none" points="293.5,-2075.5 293.5,-2121.5 " stroke="black"/>
<text font-family="Times New Roman,serif" font-size="14.00" text-anchor="middle" x="321.5" y="-2106.3">input:</text>
<polyline fill="none" points="293.5,-2098.5 349.5,-2098.5 " stroke="black"/>
<text font-family="Times New Roman,serif" font-size="14.00" text-anchor="middle" x="321.5" y="-2083.3">output:</text>
<polyline fill="none" points="349.5,-2075.5 349.5,-2121.5 " stroke="black"/>
<text font-family="Times New Roman,serif" font-size="14.00" text-anchor="middle" x="412" y="-2106.3">(None, 60, 296, 32)</text>
<polyline fill="none" points="349.5,-2098.5 474.5,-2098.5 " stroke="black"/>
<text font-family="Times New Roman,serif" font-size="14.00" text-anchor="middle" x="412" y="-2083.3">(None, 60, 296, 32)</text>
</g>
<!-- 3058235591032&#45;&gt;3058235662912 -->
<g class="edge" id="edge3"><title>3058235591032-&gt;3058235662912</title>
<path d="M254,-2158.37C254,-2150.15 254,-2140.66 254,-2131.73" fill="none" stroke="black"/>
<polygon fill="black" points="257.5,-2131.61 254,-2121.61 250.5,-2131.61 257.5,-2131.61" stroke="black"/>
</g>
<!-- 3058235837912 -->
<g class="node" id="node4"><title>3058235837912</title>
<polygon fill="none" points="89.5,-1992.5 89.5,-2038.5 418.5,-2038.5 418.5,-1992.5 89.5,-1992.5" stroke="black"/>
<text font-family="Times New Roman,serif" font-size="14.00" text-anchor="middle" x="163.5" y="-2011.8">activation_5: Activation</text>
<polyline fill="none" points="237.5,-1992.5 237.5,-2038.5 " stroke="black"/>
<text font-family="Times New Roman,serif" font-size="14.00" text-anchor="middle" x="265.5" y="-2023.3">input:</text>
<polyline fill="none" points="237.5,-2015.5 293.5,-2015.5 " stroke="black"/>
<text font-family="Times New Roman,serif" font-size="14.00" text-anchor="middle" x="265.5" y="-2000.3">output:</text>
<polyline fill="none" points="293.5,-1992.5 293.5,-2038.5 " stroke="black"/>
<text font-family="Times New Roman,serif" font-size="14.00" text-anchor="middle" x="356" y="-2023.3">(None, 60, 296, 32)</text>
<polyline fill="none" points="293.5,-2015.5 418.5,-2015.5 " stroke="black"/>
<text font-family="Times New Roman,serif" font-size="14.00" text-anchor="middle" x="356" y="-2000.3">(None, 60, 296, 32)</text>
</g>
<!-- 3058235662912&#45;&gt;3058235837912 -->
<g class="edge" id="edge4"><title>3058235662912-&gt;3058235837912</title>
<path d="M254,-2075.37C254,-2067.15 254,-2057.66 254,-2048.73" fill="none" stroke="black"/>
<polygon fill="black" points="257.5,-2048.61 254,-2038.61 250.5,-2048.61 257.5,-2048.61" stroke="black"/>
</g>
<!-- 3058235837352 -->
<g class="node" id="node5"><title>3058235837352</title>
<polygon fill="none" points="59,-1909.5 59,-1955.5 449,-1955.5 449,-1909.5 59,-1909.5" stroke="black"/>
<text font-family="Times New Roman,serif" font-size="14.00" text-anchor="middle" x="163.5" y="-1928.8">max_pooling2d_2: MaxPooling2D</text>
<polyline fill="none" points="268,-1909.5 268,-1955.5 " stroke="black"/>
<text font-family="Times New Roman,serif" font-size="14.00" text-anchor="middle" x="296" y="-1940.3">input:</text>
<polyline fill="none" points="268,-1932.5 324,-1932.5 " stroke="black"/>
<text font-family="Times New Roman,serif" font-size="14.00" text-anchor="middle" x="296" y="-1917.3">output:</text>
<polyline fill="none" points="324,-1909.5 324,-1955.5 " stroke="black"/>
<text font-family="Times New Roman,serif" font-size="14.00" text-anchor="middle" x="386.5" y="-1940.3">(None, 60, 296, 32)</text>
<polyline fill="none" points="324,-1932.5 449,-1932.5 " stroke="black"/>
<text font-family="Times New Roman,serif" font-size="14.00" text-anchor="middle" x="386.5" y="-1917.3">(None, 30, 148, 32)</text>
</g>
<!-- 3058235837912&#45;&gt;3058235837352 -->
<g class="edge" id="edge5"><title>3058235837912-&gt;3058235837352</title>
<path d="M254,-1992.37C254,-1984.15 254,-1974.66 254,-1965.73" fill="none" stroke="black"/>
<polygon fill="black" points="257.5,-1965.61 254,-1955.61 250.5,-1965.61 257.5,-1965.61" stroke="black"/>
</g>
<!-- 3058235838024 -->
<g class="node" id="node6"><title>3058235838024</title>
<polygon fill="none" points="96.5,-1826.5 96.5,-1872.5 411.5,-1872.5 411.5,-1826.5 96.5,-1826.5" stroke="black"/>
<text font-family="Times New Roman,serif" font-size="14.00" text-anchor="middle" x="163.5" y="-1845.8">conv2d_12: Conv2D</text>
<polyline fill="none" points="230.5,-1826.5 230.5,-1872.5 " stroke="black"/>
<text font-family="Times New Roman,serif" font-size="14.00" text-anchor="middle" x="258.5" y="-1857.3">input:</text>
<polyline fill="none" points="230.5,-1849.5 286.5,-1849.5 " stroke="black"/>
<text font-family="Times New Roman,serif" font-size="14.00" text-anchor="middle" x="258.5" y="-1834.3">output:</text>
<polyline fill="none" points="286.5,-1826.5 286.5,-1872.5 " stroke="black"/>
<text font-family="Times New Roman,serif" font-size="14.00" text-anchor="middle" x="349" y="-1857.3">(None, 30, 148, 32)</text>
<polyline fill="none" points="286.5,-1849.5 411.5,-1849.5 " stroke="black"/>
<text font-family="Times New Roman,serif" font-size="14.00" text-anchor="middle" x="349" y="-1834.3">(None, 28, 146, 64)</text>
</g>
<!-- 3058235837352&#45;&gt;3058235838024 -->
<g class="edge" id="edge6"><title>3058235837352-&gt;3058235838024</title>
<path d="M254,-1909.37C254,-1901.15 254,-1891.66 254,-1882.73" fill="none" stroke="black"/>
<polygon fill="black" points="257.5,-1882.61 254,-1872.61 250.5,-1882.61 257.5,-1882.61" stroke="black"/>
</g>
<!-- 3058236803504 -->
<g class="node" id="node7"><title>3058236803504</title>
<polygon fill="none" points="96.5,-1743.5 96.5,-1789.5 411.5,-1789.5 411.5,-1743.5 96.5,-1743.5" stroke="black"/>
<text font-family="Times New Roman,serif" font-size="14.00" text-anchor="middle" x="163.5" y="-1762.8">conv2d_13: Conv2D</text>
<polyline fill="none" points="230.5,-1743.5 230.5,-1789.5 " stroke="black"/>
<text font-family="Times New Roman,serif" font-size="14.00" text-anchor="middle" x="258.5" y="-1774.3">input:</text>
<polyline fill="none" points="230.5,-1766.5 286.5,-1766.5 " stroke="black"/>
<text font-family="Times New Roman,serif" font-size="14.00" text-anchor="middle" x="258.5" y="-1751.3">output:</text>
<polyline fill="none" points="286.5,-1743.5 286.5,-1789.5 " stroke="black"/>
<text font-family="Times New Roman,serif" font-size="14.00" text-anchor="middle" x="349" y="-1774.3">(None, 28, 146, 64)</text>
<polyline fill="none" points="286.5,-1766.5 411.5,-1766.5 " stroke="black"/>
<text font-family="Times New Roman,serif" font-size="14.00" text-anchor="middle" x="349" y="-1751.3">(None, 26, 144, 64)</text>
</g>
<!-- 3058235838024&#45;&gt;3058236803504 -->
<g class="edge" id="edge7"><title>3058235838024-&gt;3058236803504</title>
<path d="M254,-1826.37C254,-1818.15 254,-1808.66 254,-1799.73" fill="none" stroke="black"/>
<polygon fill="black" points="257.5,-1799.61 254,-1789.61 250.5,-1799.61 257.5,-1799.61" stroke="black"/>
</g>
<!-- 3058236803280 -->
<g class="node" id="node8"><title>3058236803280</title>
<polygon fill="none" points="59,-1660.5 59,-1706.5 449,-1706.5 449,-1660.5 59,-1660.5" stroke="black"/>
<text font-family="Times New Roman,serif" font-size="14.00" text-anchor="middle" x="163.5" y="-1679.8">max_pooling2d_3: MaxPooling2D</text>
<polyline fill="none" points="268,-1660.5 268,-1706.5 " stroke="black"/>
<text font-family="Times New Roman,serif" font-size="14.00" text-anchor="middle" x="296" y="-1691.3">input:</text>
<polyline fill="none" points="268,-1683.5 324,-1683.5 " stroke="black"/>
<text font-family="Times New Roman,serif" font-size="14.00" text-anchor="middle" x="296" y="-1668.3">output:</text>
<polyline fill="none" points="324,-1660.5 324,-1706.5 " stroke="black"/>
<text font-family="Times New Roman,serif" font-size="14.00" text-anchor="middle" x="386.5" y="-1691.3">(None, 26, 144, 64)</text>
<polyline fill="none" points="324,-1683.5 449,-1683.5 " stroke="black"/>
<text font-family="Times New Roman,serif" font-size="14.00" text-anchor="middle" x="386.5" y="-1668.3">(None, 13, 72, 64)</text>
</g>
<!-- 3058236803504&#45;&gt;3058236803280 -->
<g class="edge" id="edge8"><title>3058236803504-&gt;3058236803280</title>
<path d="M254,-1743.37C254,-1735.15 254,-1725.66 254,-1716.73" fill="none" stroke="black"/>
<polygon fill="black" points="257.5,-1716.61 254,-1706.61 250.5,-1716.61 257.5,-1716.61" stroke="black"/>
</g>
<!-- 3058236889856 -->
<g class="node" id="node9"><title>3058236889856</title>
<polygon fill="none" points="36.5,-1577.5 36.5,-1623.5 471.5,-1623.5 471.5,-1577.5 36.5,-1577.5" stroke="black"/>
<text font-family="Times New Roman,serif" font-size="14.00" text-anchor="middle" x="166.5" y="-1596.8">batch_normalization_5: BatchNormalization</text>
<polyline fill="none" points="296.5,-1577.5 296.5,-1623.5 " stroke="black"/>
<text font-family="Times New Roman,serif" font-size="14.00" text-anchor="middle" x="324.5" y="-1608.3">input:</text>
<polyline fill="none" points="296.5,-1600.5 352.5,-1600.5 " stroke="black"/>
<text font-family="Times New Roman,serif" font-size="14.00" text-anchor="middle" x="324.5" y="-1585.3">output:</text>
<polyline fill="none" points="352.5,-1577.5 352.5,-1623.5 " stroke="black"/>
<text font-family="Times New Roman,serif" font-size="14.00" text-anchor="middle" x="412" y="-1608.3">(None, 13, 72, 64)</text>
<polyline fill="none" points="352.5,-1600.5 471.5,-1600.5 " stroke="black"/>
<text font-family="Times New Roman,serif" font-size="14.00" text-anchor="middle" x="412" y="-1585.3">(None, 13, 72, 64)</text>
</g>
<!-- 3058236803280&#45;&gt;3058236889856 -->
<g class="edge" id="edge9"><title>3058236803280-&gt;3058236889856</title>
<path d="M254,-1660.37C254,-1652.15 254,-1642.66 254,-1633.73" fill="none" stroke="black"/>
<polygon fill="black" points="257.5,-1633.61 254,-1623.61 250.5,-1633.61 257.5,-1633.61" stroke="black"/>
</g>
<!-- 3058237097016 -->
<g class="node" id="node10"><title>3058237097016</title>
<polygon fill="none" points="92.5,-1494.5 92.5,-1540.5 415.5,-1540.5 415.5,-1494.5 92.5,-1494.5" stroke="black"/>
<text font-family="Times New Roman,serif" font-size="14.00" text-anchor="middle" x="166.5" y="-1513.8">activation_6: Activation</text>
<polyline fill="none" points="240.5,-1494.5 240.5,-1540.5 " stroke="black"/>
<text font-family="Times New Roman,serif" font-size="14.00" text-anchor="middle" x="268.5" y="-1525.3">input:</text>
<polyline fill="none" points="240.5,-1517.5 296.5,-1517.5 " stroke="black"/>
<text font-family="Times New Roman,serif" font-size="14.00" text-anchor="middle" x="268.5" y="-1502.3">output:</text>
<polyline fill="none" points="296.5,-1494.5 296.5,-1540.5 " stroke="black"/>
<text font-family="Times New Roman,serif" font-size="14.00" text-anchor="middle" x="356" y="-1525.3">(None, 13, 72, 64)</text>
<polyline fill="none" points="296.5,-1517.5 415.5,-1517.5 " stroke="black"/>
<text font-family="Times New Roman,serif" font-size="14.00" text-anchor="middle" x="356" y="-1502.3">(None, 13, 72, 64)</text>
</g>
<!-- 3058236889856&#45;&gt;3058237097016 -->
<g class="edge" id="edge10"><title>3058236889856-&gt;3058237097016</title>
<path d="M254,-1577.37C254,-1569.15 254,-1559.66 254,-1550.73" fill="none" stroke="black"/>
<polygon fill="black" points="257.5,-1550.61 254,-1540.61 250.5,-1550.61 257.5,-1550.61" stroke="black"/>
</g>
<!-- 3058235836232 -->
<g class="node" id="node11"><title>3058235836232</title>
<polygon fill="none" points="96.5,-1411.5 96.5,-1457.5 411.5,-1457.5 411.5,-1411.5 96.5,-1411.5" stroke="black"/>
<text font-family="Times New Roman,serif" font-size="14.00" text-anchor="middle" x="163.5" y="-1430.8">conv2d_14: Conv2D</text>
<polyline fill="none" points="230.5,-1411.5 230.5,-1457.5 " stroke="black"/>
<text font-family="Times New Roman,serif" font-size="14.00" text-anchor="middle" x="258.5" y="-1442.3">input:</text>
<polyline fill="none" points="230.5,-1434.5 286.5,-1434.5 " stroke="black"/>
<text font-family="Times New Roman,serif" font-size="14.00" text-anchor="middle" x="258.5" y="-1419.3">output:</text>
<polyline fill="none" points="286.5,-1411.5 286.5,-1457.5 " stroke="black"/>
<text font-family="Times New Roman,serif" font-size="14.00" text-anchor="middle" x="349" y="-1442.3">(None, 13, 72, 64)</text>
<polyline fill="none" points="286.5,-1434.5 411.5,-1434.5 " stroke="black"/>
<text font-family="Times New Roman,serif" font-size="14.00" text-anchor="middle" x="349" y="-1419.3">(None, 11, 70, 128)</text>
</g>
<!-- 3058237097016&#45;&gt;3058235836232 -->
<g class="edge" id="edge11"><title>3058237097016-&gt;3058235836232</title>
<path d="M254,-1494.37C254,-1486.15 254,-1476.66 254,-1467.73" fill="none" stroke="black"/>
<polygon fill="black" points="257.5,-1467.61 254,-1457.61 250.5,-1467.61 257.5,-1467.61" stroke="black"/>
</g>
<!-- 3058237096456 -->
<g class="node" id="node12"><title>3058237096456</title>
<polygon fill="none" points="96.5,-1328.5 96.5,-1374.5 411.5,-1374.5 411.5,-1328.5 96.5,-1328.5" stroke="black"/>
<text font-family="Times New Roman,serif" font-size="14.00" text-anchor="middle" x="163.5" y="-1347.8">conv2d_15: Conv2D</text>
<polyline fill="none" points="230.5,-1328.5 230.5,-1374.5 " stroke="black"/>
<text font-family="Times New Roman,serif" font-size="14.00" text-anchor="middle" x="258.5" y="-1359.3">input:</text>
<polyline fill="none" points="230.5,-1351.5 286.5,-1351.5 " stroke="black"/>
<text font-family="Times New Roman,serif" font-size="14.00" text-anchor="middle" x="258.5" y="-1336.3">output:</text>
<polyline fill="none" points="286.5,-1328.5 286.5,-1374.5 " stroke="black"/>
<text font-family="Times New Roman,serif" font-size="14.00" text-anchor="middle" x="349" y="-1359.3">(None, 11, 70, 128)</text>
<polyline fill="none" points="286.5,-1351.5 411.5,-1351.5 " stroke="black"/>
<text font-family="Times New Roman,serif" font-size="14.00" text-anchor="middle" x="349" y="-1336.3">(None, 9, 68, 128)</text>
</g>
<!-- 3058235836232&#45;&gt;3058237096456 -->
<g class="edge" id="edge12"><title>3058235836232-&gt;3058237096456</title>
<path d="M254,-1411.37C254,-1403.15 254,-1393.66 254,-1384.73" fill="none" stroke="black"/>
<polygon fill="black" points="257.5,-1384.61 254,-1374.61 250.5,-1384.61 257.5,-1384.61" stroke="black"/>
</g>
<!-- 3058236890976 -->
<g class="node" id="node13"><title>3058236890976</title>
<polygon fill="none" points="36.5,-1245.5 36.5,-1291.5 471.5,-1291.5 471.5,-1245.5 36.5,-1245.5" stroke="black"/>
<text font-family="Times New Roman,serif" font-size="14.00" text-anchor="middle" x="166.5" y="-1264.8">batch_normalization_6: BatchNormalization</text>
<polyline fill="none" points="296.5,-1245.5 296.5,-1291.5 " stroke="black"/>
<text font-family="Times New Roman,serif" font-size="14.00" text-anchor="middle" x="324.5" y="-1276.3">input:</text>
<polyline fill="none" points="296.5,-1268.5 352.5,-1268.5 " stroke="black"/>
<text font-family="Times New Roman,serif" font-size="14.00" text-anchor="middle" x="324.5" y="-1253.3">output:</text>
<polyline fill="none" points="352.5,-1245.5 352.5,-1291.5 " stroke="black"/>
<text font-family="Times New Roman,serif" font-size="14.00" text-anchor="middle" x="412" y="-1276.3">(None, 9, 68, 128)</text>
<polyline fill="none" points="352.5,-1268.5 471.5,-1268.5 " stroke="black"/>
<text font-family="Times New Roman,serif" font-size="14.00" text-anchor="middle" x="412" y="-1253.3">(None, 9, 68, 128)</text>
</g>
<!-- 3058237096456&#45;&gt;3058236890976 -->
<g class="edge" id="edge13"><title>3058237096456-&gt;3058236890976</title>
<path d="M254,-1328.37C254,-1320.15 254,-1310.66 254,-1301.73" fill="none" stroke="black"/>
<polygon fill="black" points="257.5,-1301.61 254,-1291.61 250.5,-1301.61 257.5,-1301.61" stroke="black"/>
</g>
<!-- 3058238042008 -->
<g class="node" id="node14"><title>3058238042008</title>
<polygon fill="none" points="92.5,-1162.5 92.5,-1208.5 415.5,-1208.5 415.5,-1162.5 92.5,-1162.5" stroke="black"/>
<text font-family="Times New Roman,serif" font-size="14.00" text-anchor="middle" x="166.5" y="-1181.8">activation_7: Activation</text>
<polyline fill="none" points="240.5,-1162.5 240.5,-1208.5 " stroke="black"/>
<text font-family="Times New Roman,serif" font-size="14.00" text-anchor="middle" x="268.5" y="-1193.3">input:</text>
<polyline fill="none" points="240.5,-1185.5 296.5,-1185.5 " stroke="black"/>
<text font-family="Times New Roman,serif" font-size="14.00" text-anchor="middle" x="268.5" y="-1170.3">output:</text>
<polyline fill="none" points="296.5,-1162.5 296.5,-1208.5 " stroke="black"/>
<text font-family="Times New Roman,serif" font-size="14.00" text-anchor="middle" x="356" y="-1193.3">(None, 9, 68, 128)</text>
<polyline fill="none" points="296.5,-1185.5 415.5,-1185.5 " stroke="black"/>
<text font-family="Times New Roman,serif" font-size="14.00" text-anchor="middle" x="356" y="-1170.3">(None, 9, 68, 128)</text>
</g>
<!-- 3058236890976&#45;&gt;3058238042008 -->
<g class="edge" id="edge14"><title>3058236890976-&gt;3058238042008</title>
<path d="M254,-1245.37C254,-1237.15 254,-1227.66 254,-1218.73" fill="none" stroke="black"/>
<polygon fill="black" points="257.5,-1218.61 254,-1208.61 250.5,-1218.61 257.5,-1218.61" stroke="black"/>
</g>
<!-- 3058237248904 -->
<g class="node" id="node15"><title>3058237248904</title>
<polygon fill="none" points="99.5,-1079.5 99.5,-1125.5 408.5,-1125.5 408.5,-1079.5 99.5,-1079.5" stroke="black"/>
<text font-family="Times New Roman,serif" font-size="14.00" text-anchor="middle" x="166.5" y="-1098.8">conv2d_16: Conv2D</text>
<polyline fill="none" points="233.5,-1079.5 233.5,-1125.5 " stroke="black"/>
<text font-family="Times New Roman,serif" font-size="14.00" text-anchor="middle" x="261.5" y="-1110.3">input:</text>
<polyline fill="none" points="233.5,-1102.5 289.5,-1102.5 " stroke="black"/>
<text font-family="Times New Roman,serif" font-size="14.00" text-anchor="middle" x="261.5" y="-1087.3">output:</text>
<polyline fill="none" points="289.5,-1079.5 289.5,-1125.5 " stroke="black"/>
<text font-family="Times New Roman,serif" font-size="14.00" text-anchor="middle" x="349" y="-1110.3">(None, 9, 68, 128)</text>
<polyline fill="none" points="289.5,-1102.5 408.5,-1102.5 " stroke="black"/>
<text font-family="Times New Roman,serif" font-size="14.00" text-anchor="middle" x="349" y="-1087.3">(None, 7, 66, 256)</text>
</g>
<!-- 3058238042008&#45;&gt;3058237248904 -->
<g class="edge" id="edge15"><title>3058238042008-&gt;3058237248904</title>
<path d="M254,-1162.37C254,-1154.15 254,-1144.66 254,-1135.73" fill="none" stroke="black"/>
<polygon fill="black" points="257.5,-1135.61 254,-1125.61 250.5,-1135.61 257.5,-1135.61" stroke="black"/>
</g>
<!-- 3058238130496 -->
<g class="node" id="node16"><title>3058238130496</title>
<polygon fill="none" points="99.5,-996.5 99.5,-1042.5 408.5,-1042.5 408.5,-996.5 99.5,-996.5" stroke="black"/>
<text font-family="Times New Roman,serif" font-size="14.00" text-anchor="middle" x="166.5" y="-1015.8">conv2d_17: Conv2D</text>
<polyline fill="none" points="233.5,-996.5 233.5,-1042.5 " stroke="black"/>
<text font-family="Times New Roman,serif" font-size="14.00" text-anchor="middle" x="261.5" y="-1027.3">input:</text>
<polyline fill="none" points="233.5,-1019.5 289.5,-1019.5 " stroke="black"/>
<text font-family="Times New Roman,serif" font-size="14.00" text-anchor="middle" x="261.5" y="-1004.3">output:</text>
<polyline fill="none" points="289.5,-996.5 289.5,-1042.5 " stroke="black"/>
<text font-family="Times New Roman,serif" font-size="14.00" text-anchor="middle" x="349" y="-1027.3">(None, 7, 66, 256)</text>
<polyline fill="none" points="289.5,-1019.5 408.5,-1019.5 " stroke="black"/>
<text font-family="Times New Roman,serif" font-size="14.00" text-anchor="middle" x="349" y="-1004.3">(None, 5, 64, 256)</text>
</g>
<!-- 3058237248904&#45;&gt;3058238130496 -->
<g class="edge" id="edge16"><title>3058237248904-&gt;3058238130496</title>
<path d="M254,-1079.37C254,-1071.15 254,-1061.66 254,-1052.73" fill="none" stroke="black"/>
<polygon fill="black" points="257.5,-1052.61 254,-1042.61 250.5,-1052.61 257.5,-1052.61" stroke="black"/>
</g>
<!-- 3058238042064 -->
<g class="node" id="node17"><title>3058238042064</title>
<polygon fill="none" points="36.5,-913.5 36.5,-959.5 471.5,-959.5 471.5,-913.5 36.5,-913.5" stroke="black"/>
<text font-family="Times New Roman,serif" font-size="14.00" text-anchor="middle" x="166.5" y="-932.8">batch_normalization_7: BatchNormalization</text>
<polyline fill="none" points="296.5,-913.5 296.5,-959.5 " stroke="black"/>
<text font-family="Times New Roman,serif" font-size="14.00" text-anchor="middle" x="324.5" y="-944.3">input:</text>
<polyline fill="none" points="296.5,-936.5 352.5,-936.5 " stroke="black"/>
<text font-family="Times New Roman,serif" font-size="14.00" text-anchor="middle" x="324.5" y="-921.3">output:</text>
<polyline fill="none" points="352.5,-913.5 352.5,-959.5 " stroke="black"/>
<text font-family="Times New Roman,serif" font-size="14.00" text-anchor="middle" x="412" y="-944.3">(None, 5, 64, 256)</text>
<polyline fill="none" points="352.5,-936.5 471.5,-936.5 " stroke="black"/>
<text font-family="Times New Roman,serif" font-size="14.00" text-anchor="middle" x="412" y="-921.3">(None, 5, 64, 256)</text>
</g>
<!-- 3058238130496&#45;&gt;3058238042064 -->
<g class="edge" id="edge17"><title>3058238130496-&gt;3058238042064</title>
<path d="M254,-996.366C254,-988.152 254,-978.658 254,-969.725" fill="none" stroke="black"/>
<polygon fill="black" points="257.5,-969.607 254,-959.607 250.5,-969.607 257.5,-969.607" stroke="black"/>
</g>
<!-- 3058239127112 -->
<g class="node" id="node18"><title>3058239127112</title>
<polygon fill="none" points="92.5,-830.5 92.5,-876.5 415.5,-876.5 415.5,-830.5 92.5,-830.5" stroke="black"/>
<text font-family="Times New Roman,serif" font-size="14.00" text-anchor="middle" x="166.5" y="-849.8">activation_8: Activation</text>
<polyline fill="none" points="240.5,-830.5 240.5,-876.5 " stroke="black"/>
<text font-family="Times New Roman,serif" font-size="14.00" text-anchor="middle" x="268.5" y="-861.3">input:</text>
<polyline fill="none" points="240.5,-853.5 296.5,-853.5 " stroke="black"/>
<text font-family="Times New Roman,serif" font-size="14.00" text-anchor="middle" x="268.5" y="-838.3">output:</text>
<polyline fill="none" points="296.5,-830.5 296.5,-876.5 " stroke="black"/>
<text font-family="Times New Roman,serif" font-size="14.00" text-anchor="middle" x="356" y="-861.3">(None, 5, 64, 256)</text>
<polyline fill="none" points="296.5,-853.5 415.5,-853.5 " stroke="black"/>
<text font-family="Times New Roman,serif" font-size="14.00" text-anchor="middle" x="356" y="-838.3">(None, 5, 64, 256)</text>
</g>
<!-- 3058238042064&#45;&gt;3058239127112 -->
<g class="edge" id="edge18"><title>3058238042064-&gt;3058239127112</title>
<path d="M254,-913.366C254,-905.152 254,-895.658 254,-886.725" fill="none" stroke="black"/>
<polygon fill="black" points="257.5,-886.607 254,-876.607 250.5,-886.607 257.5,-886.607" stroke="black"/>
</g>
<!-- 3058239125432 -->
<g class="node" id="node19"><title>3058239125432</title>
<polygon fill="none" points="99.5,-747.5 99.5,-793.5 408.5,-793.5 408.5,-747.5 99.5,-747.5" stroke="black"/>
<text font-family="Times New Roman,serif" font-size="14.00" text-anchor="middle" x="166.5" y="-766.8">conv2d_18: Conv2D</text>
<polyline fill="none" points="233.5,-747.5 233.5,-793.5 " stroke="black"/>
<text font-family="Times New Roman,serif" font-size="14.00" text-anchor="middle" x="261.5" y="-778.3">input:</text>
<polyline fill="none" points="233.5,-770.5 289.5,-770.5 " stroke="black"/>
<text font-family="Times New Roman,serif" font-size="14.00" text-anchor="middle" x="261.5" y="-755.3">output:</text>
<polyline fill="none" points="289.5,-747.5 289.5,-793.5 " stroke="black"/>
<text font-family="Times New Roman,serif" font-size="14.00" text-anchor="middle" x="349" y="-778.3">(None, 5, 64, 256)</text>
<polyline fill="none" points="289.5,-770.5 408.5,-770.5 " stroke="black"/>
<text font-family="Times New Roman,serif" font-size="14.00" text-anchor="middle" x="349" y="-755.3">(None, 3, 62, 512)</text>
</g>
<!-- 3058239127112&#45;&gt;3058239125432 -->
<g class="edge" id="edge19"><title>3058239127112-&gt;3058239125432</title>
<path d="M254,-830.366C254,-822.152 254,-812.658 254,-803.725" fill="none" stroke="black"/>
<polygon fill="black" points="257.5,-803.607 254,-793.607 250.5,-803.607 257.5,-803.607" stroke="black"/>
</g>
<!-- 3058239422080 -->
<g class="node" id="node20"><title>3058239422080</title>
<polygon fill="none" points="96.5,-664.5 96.5,-710.5 411.5,-710.5 411.5,-664.5 96.5,-664.5" stroke="black"/>
<text font-family="Times New Roman,serif" font-size="14.00" text-anchor="middle" x="163.5" y="-683.8">conv2d_19: Conv2D</text>
<polyline fill="none" points="230.5,-664.5 230.5,-710.5 " stroke="black"/>
<text font-family="Times New Roman,serif" font-size="14.00" text-anchor="middle" x="258.5" y="-695.3">input:</text>
<polyline fill="none" points="230.5,-687.5 286.5,-687.5 " stroke="black"/>
<text font-family="Times New Roman,serif" font-size="14.00" text-anchor="middle" x="258.5" y="-672.3">output:</text>
<polyline fill="none" points="286.5,-664.5 286.5,-710.5 " stroke="black"/>
<text font-family="Times New Roman,serif" font-size="14.00" text-anchor="middle" x="349" y="-695.3">(None, 3, 62, 512)</text>
<polyline fill="none" points="286.5,-687.5 411.5,-687.5 " stroke="black"/>
<text font-family="Times New Roman,serif" font-size="14.00" text-anchor="middle" x="349" y="-672.3">(None, 1, 60, 1100)</text>
</g>
<!-- 3058239125432&#45;&gt;3058239422080 -->
<g class="edge" id="edge20"><title>3058239125432-&gt;3058239422080</title>
<path d="M254,-747.366C254,-739.152 254,-729.658 254,-720.725" fill="none" stroke="black"/>
<polygon fill="black" points="257.5,-720.607 254,-710.607 250.5,-720.607 257.5,-720.607" stroke="black"/>
</g>
<!-- 3058239422192 -->
<g class="node" id="node21"><title>3058239422192</title>
<polygon fill="none" points="0,-581.5 0,-627.5 508,-627.5 508,-581.5 0,-581.5" stroke="black"/>
<text font-family="Times New Roman,serif" font-size="14.00" text-anchor="middle" x="163.5" y="-600.8">global_average_pooling2d_1: GlobalAveragePooling2D</text>
<polyline fill="none" points="327,-581.5 327,-627.5 " stroke="black"/>
<text font-family="Times New Roman,serif" font-size="14.00" text-anchor="middle" x="355" y="-612.3">input:</text>
<polyline fill="none" points="327,-604.5 383,-604.5 " stroke="black"/>
<text font-family="Times New Roman,serif" font-size="14.00" text-anchor="middle" x="355" y="-589.3">output:</text>
<polyline fill="none" points="383,-581.5 383,-627.5 " stroke="black"/>
<text font-family="Times New Roman,serif" font-size="14.00" text-anchor="middle" x="445.5" y="-612.3">(None, 1, 60, 1100)</text>
<polyline fill="none" points="383,-604.5 508,-604.5 " stroke="black"/>
<text font-family="Times New Roman,serif" font-size="14.00" text-anchor="middle" x="445.5" y="-589.3">(None, 1100)</text>
</g>
<!-- 3058239422080&#45;&gt;3058239422192 -->
<g class="edge" id="edge21"><title>3058239422080-&gt;3058239422192</title>
<path d="M254,-664.366C254,-656.152 254,-646.658 254,-637.725" fill="none" stroke="black"/>
<polygon fill="black" points="257.5,-637.607 254,-627.607 250.5,-637.607 257.5,-637.607" stroke="black"/>
</g>
<!-- 3058242017488 -->
<g class="node" id="node22"><title>3058242017488</title>
<polygon fill="none" points="110,-498.5 110,-544.5 398,-544.5 398,-498.5 110,-498.5" stroke="black"/>
<text font-family="Times New Roman,serif" font-size="14.00" text-anchor="middle" x="174" y="-517.8">reshape_1: Reshape</text>
<polyline fill="none" points="238,-498.5 238,-544.5 " stroke="black"/>
<text font-family="Times New Roman,serif" font-size="14.00" text-anchor="middle" x="266" y="-529.3">input:</text>
<polyline fill="none" points="238,-521.5 294,-521.5 " stroke="black"/>
<text font-family="Times New Roman,serif" font-size="14.00" text-anchor="middle" x="266" y="-506.3">output:</text>
<polyline fill="none" points="294,-498.5 294,-544.5 " stroke="black"/>
<text font-family="Times New Roman,serif" font-size="14.00" text-anchor="middle" x="346" y="-529.3">(None, 1100)</text>
<polyline fill="none" points="294,-521.5 398,-521.5 " stroke="black"/>
<text font-family="Times New Roman,serif" font-size="14.00" text-anchor="middle" x="346" y="-506.3">(None, 11, 100)</text>
</g>
<!-- 3058239422192&#45;&gt;3058242017488 -->
<g class="edge" id="edge22"><title>3058239422192-&gt;3058242017488</title>
<path d="M254,-581.366C254,-573.152 254,-563.658 254,-554.725" fill="none" stroke="black"/>
<polygon fill="black" points="257.5,-554.607 254,-544.607 250.5,-554.607 257.5,-554.607" stroke="black"/>
</g>
<!-- 3058242019280 -->
<g class="node" id="node23"><title>3058242019280</title>
<polygon fill="none" points="81,-415.5 81,-461.5 427,-461.5 427,-415.5 81,-415.5" stroke="black"/>
<text font-family="Times New Roman,serif" font-size="14.00" text-anchor="middle" x="174" y="-434.8">cu_dnnlstm_4: CuDNNLSTM</text>
<polyline fill="none" points="267,-415.5 267,-461.5 " stroke="black"/>
<text font-family="Times New Roman,serif" font-size="14.00" text-anchor="middle" x="295" y="-446.3">input:</text>
<polyline fill="none" points="267,-438.5 323,-438.5 " stroke="black"/>
<text font-family="Times New Roman,serif" font-size="14.00" text-anchor="middle" x="295" y="-423.3">output:</text>
<polyline fill="none" points="323,-415.5 323,-461.5 " stroke="black"/>
<text font-family="Times New Roman,serif" font-size="14.00" text-anchor="middle" x="375" y="-446.3">(None, 11, 100)</text>
<polyline fill="none" points="323,-438.5 427,-438.5 " stroke="black"/>
<text font-family="Times New Roman,serif" font-size="14.00" text-anchor="middle" x="375" y="-423.3">(None, 11, 128)</text>
</g>
<!-- 3058242017488&#45;&gt;3058242019280 -->
<g class="edge" id="edge23"><title>3058242017488-&gt;3058242019280</title>
<path d="M254,-498.366C254,-490.152 254,-480.658 254,-471.725" fill="none" stroke="black"/>
<polygon fill="black" points="257.5,-471.607 254,-461.607 250.5,-471.607 257.5,-471.607" stroke="black"/>
</g>
<!-- 3058236802776 -->
<g class="node" id="node24"><title>3058236802776</title>
<polygon fill="none" points="81,-332.5 81,-378.5 427,-378.5 427,-332.5 81,-332.5" stroke="black"/>
<text font-family="Times New Roman,serif" font-size="14.00" text-anchor="middle" x="174" y="-351.8">cu_dnnlstm_5: CuDNNLSTM</text>
<polyline fill="none" points="267,-332.5 267,-378.5 " stroke="black"/>
<text font-family="Times New Roman,serif" font-size="14.00" text-anchor="middle" x="295" y="-363.3">input:</text>
<polyline fill="none" points="267,-355.5 323,-355.5 " stroke="black"/>
<text font-family="Times New Roman,serif" font-size="14.00" text-anchor="middle" x="295" y="-340.3">output:</text>
<polyline fill="none" points="323,-332.5 323,-378.5 " stroke="black"/>
<text font-family="Times New Roman,serif" font-size="14.00" text-anchor="middle" x="375" y="-363.3">(None, 11, 128)</text>
<polyline fill="none" points="323,-355.5 427,-355.5 " stroke="black"/>
<text font-family="Times New Roman,serif" font-size="14.00" text-anchor="middle" x="375" y="-340.3">(None, 11, 128)</text>
</g>
<!-- 3058242019280&#45;&gt;3058236802776 -->
<g class="edge" id="edge24"><title>3058242019280-&gt;3058236802776</title>
<path d="M254,-415.366C254,-407.152 254,-397.658 254,-388.725" fill="none" stroke="black"/>
<polygon fill="black" points="257.5,-388.607 254,-378.607 250.5,-388.607 257.5,-388.607" stroke="black"/>
</g>
<!-- 3058239224800 -->
<g class="node" id="node25"><title>3058239224800</title>
<polygon fill="none" points="81,-249.5 81,-295.5 427,-295.5 427,-249.5 81,-249.5" stroke="black"/>
<text font-family="Times New Roman,serif" font-size="14.00" text-anchor="middle" x="174" y="-268.8">cu_dnnlstm_6: CuDNNLSTM</text>
<polyline fill="none" points="267,-249.5 267,-295.5 " stroke="black"/>
<text font-family="Times New Roman,serif" font-size="14.00" text-anchor="middle" x="295" y="-280.3">input:</text>
<polyline fill="none" points="267,-272.5 323,-272.5 " stroke="black"/>
<text font-family="Times New Roman,serif" font-size="14.00" text-anchor="middle" x="295" y="-257.3">output:</text>
<polyline fill="none" points="323,-249.5 323,-295.5 " stroke="black"/>
<text font-family="Times New Roman,serif" font-size="14.00" text-anchor="middle" x="375" y="-280.3">(None, 11, 128)</text>
<polyline fill="none" points="323,-272.5 427,-272.5 " stroke="black"/>
<text font-family="Times New Roman,serif" font-size="14.00" text-anchor="middle" x="375" y="-257.3">(None, 11, 256)</text>
</g>
<!-- 3058236802776&#45;&gt;3058239224800 -->
<g class="edge" id="edge25"><title>3058236802776-&gt;3058239224800</title>
<path d="M254,-332.366C254,-324.152 254,-314.658 254,-305.725" fill="none" stroke="black"/>
<polygon fill="black" points="257.5,-305.607 254,-295.607 250.5,-305.607 257.5,-305.607" stroke="black"/>
</g>
<!-- 3058242462776 -->
<g class="node" id="node26"><title>3058242462776</title>
<polygon fill="none" points="81,-166.5 81,-212.5 427,-212.5 427,-166.5 81,-166.5" stroke="black"/>
<text font-family="Times New Roman,serif" font-size="14.00" text-anchor="middle" x="174" y="-185.8">cu_dnnlstm_7: CuDNNLSTM</text>
<polyline fill="none" points="267,-166.5 267,-212.5 " stroke="black"/>
<text font-family="Times New Roman,serif" font-size="14.00" text-anchor="middle" x="295" y="-197.3">input:</text>
<polyline fill="none" points="267,-189.5 323,-189.5 " stroke="black"/>
<text font-family="Times New Roman,serif" font-size="14.00" text-anchor="middle" x="295" y="-174.3">output:</text>
<polyline fill="none" points="323,-166.5 323,-212.5 " stroke="black"/>
<text font-family="Times New Roman,serif" font-size="14.00" text-anchor="middle" x="375" y="-197.3">(None, 11, 256)</text>
<polyline fill="none" points="323,-189.5 427,-189.5 " stroke="black"/>
<text font-family="Times New Roman,serif" font-size="14.00" text-anchor="middle" x="375" y="-174.3">(None, 11, 256)</text>
</g>
<!-- 3058239224800&#45;&gt;3058242462776 -->
<g class="edge" id="edge26"><title>3058239224800-&gt;3058242462776</title>
<path d="M254,-249.366C254,-241.152 254,-231.658 254,-222.725" fill="none" stroke="black"/>
<polygon fill="black" points="257.5,-222.607 254,-212.607 250.5,-222.607 257.5,-222.607" stroke="black"/>
</g>
<!-- 3058246961192 -->
<g class="node" id="node27"><title>3058246961192</title>
<polygon fill="none" points="65,-83.5 65,-129.5 443,-129.5 443,-83.5 65,-83.5" stroke="black"/>
<text font-family="Times New Roman,serif" font-size="14.00" text-anchor="middle" x="174" y="-102.8">time_distributed_1: TimeDistributed</text>
<polyline fill="none" points="283,-83.5 283,-129.5 " stroke="black"/>
<text font-family="Times New Roman,serif" font-size="14.00" text-anchor="middle" x="311" y="-114.3">input:</text>
<polyline fill="none" points="283,-106.5 339,-106.5 " stroke="black"/>
<text font-family="Times New Roman,serif" font-size="14.00" text-anchor="middle" x="311" y="-91.3">output:</text>
<polyline fill="none" points="339,-83.5 339,-129.5 " stroke="black"/>
<text font-family="Times New Roman,serif" font-size="14.00" text-anchor="middle" x="391" y="-114.3">(None, 11, 256)</text>
<polyline fill="none" points="339,-106.5 443,-106.5 " stroke="black"/>
<text font-family="Times New Roman,serif" font-size="14.00" text-anchor="middle" x="391" y="-91.3">(None, 11, 17)</text>
</g>
<!-- 3058242462776&#45;&gt;3058246961192 -->
<g class="edge" id="edge27"><title>3058242462776-&gt;3058246961192</title>
<path d="M254,-166.366C254,-158.152 254,-148.658 254,-139.725" fill="none" stroke="black"/>
<polygon fill="black" points="257.5,-139.607 254,-129.607 250.5,-139.607 257.5,-139.607" stroke="black"/>
</g>
<!-- 3058245623704 -->
<g class="node" id="node28"><title>3058245623704</title>
<polygon fill="none" points="103,-0.5 103,-46.5 405,-46.5 405,-0.5 103,-0.5" stroke="black"/>
<text font-family="Times New Roman,serif" font-size="14.00" text-anchor="middle" x="177" y="-19.8">activation_9: Activation</text>
<polyline fill="none" points="251,-0.5 251,-46.5 " stroke="black"/>
<text font-family="Times New Roman,serif" font-size="14.00" text-anchor="middle" x="279" y="-31.3">input:</text>
<polyline fill="none" points="251,-23.5 307,-23.5 " stroke="black"/>
<text font-family="Times New Roman,serif" font-size="14.00" text-anchor="middle" x="279" y="-8.3">output:</text>
<polyline fill="none" points="307,-0.5 307,-46.5 " stroke="black"/>
<text font-family="Times New Roman,serif" font-size="14.00" text-anchor="middle" x="356" y="-31.3">(None, 11, 17)</text>
<polyline fill="none" points="307,-23.5 405,-23.5 " stroke="black"/>
<text font-family="Times New Roman,serif" font-size="14.00" text-anchor="middle" x="356" y="-8.3">(None, 11, 17)</text>
</g>
<!-- 3058246961192&#45;&gt;3058245623704 -->
<g class="edge" id="edge28"><title>3058246961192-&gt;3058245623704</title>
<path d="M254,-83.3664C254,-75.1516 254,-65.6579 254,-56.7252" fill="none" stroke="black"/>
<polygon fill="black" points="257.5,-56.6068 254,-46.6068 250.5,-56.6069 257.5,-56.6068" stroke="black"/>
</g>
<!-- 3058235589296 -->
<g class="node" id="node29"><title>3058235589296</title>
<polygon fill="none" points="202,-2324.5 202,-2360.5 306,-2360.5 306,-2324.5 202,-2324.5" stroke="black"/>
<text font-family="Times New Roman,serif" font-size="14.00" text-anchor="middle" x="254" y="-2338.8">3058235589296</text>
</g>
<!-- 3058235589296&#45;&gt;3058235373776 -->
<g class="edge" id="edge1"><title>3058235589296-&gt;3058235373776</title>
<path d="M254,-2324.25C254,-2316.36 254,-2306.75 254,-2297.6" fill="none" stroke="black"/>
<polygon fill="black" points="257.5,-2297.59 254,-2287.59 250.5,-2297.59 257.5,-2297.59" stroke="black"/>
</g>
</g>
</svg>